<?xml version="1.0" encoding="UTF-8" standalone="no"?>
<!DOCTYPE svg PUBLIC "-//W3C//DTD SVG 1.1//EN"
 "http://www.w3.org/Graphics/SVG/1.1/DTD/svg11.dtd">
<!-- Generated by graphviz version 2.30.1 (20180420.1509)
 -->
<!-- Title: G Pages: 1 -->
<svg width="300pt" height="188pt"
 viewBox="0.00 0.00 300.00 188.00" xmlns="http://www.w3.org/2000/svg" xmlns:xlink="http://www.w3.org/1999/xlink">
<g id="graph0" class="graph" transform="scale(1 1) rotate(0) translate(4 184)">
<title>G</title>
<polygon fill="white" stroke="white" points="-4,5 -4,-184 297,-184 297,5 -4,5"/>
<!-- n2 -->
<g id="node1" class="node"><title>n2</title>
<ellipse fill="none" stroke="red" cx="146" cy="-18" rx="28.3955" ry="18"/>
<text text-anchor="middle" x="146" y="-14.3" font-family="Times,serif" font-size="14.00">test</text>
</g>
<!-- n4 -->
<g id="node2" class="node"><title>n4</title>
<ellipse fill="none" stroke="green" cx="42" cy="-162" rx="42.3456" ry="18"/>
<text text-anchor="middle" x="42" y="-158.3" font-family="Times,serif" font-size="14.00">test1.c</text>
</g>
<!-- n3 -->
<g id="node3" class="node"><title>n3</title>
<ellipse fill="none" stroke="red" cx="42" cy="-90" rx="42.3456" ry="18"/>
<text text-anchor="middle" x="42" y="-86.3" font-family="Times,serif" font-size="14.00">test1.o</text>
</g>
<!-- n4&#45;&gt;n3 -->
<g id="edge4" class="edge"><title>n4&#45;&gt;n3</title>
<path fill="none" stroke="black" d="M42,-143.697C42,-135.983 42,-126.712 42,-118.112"/>
<polygon fill="black" stroke="black" points="45.5001,-118.104 42,-108.104 38.5001,-118.104 45.5001,-118.104"/>
</g>
<!-- n3&#45;&gt;n2 -->
<g id="edge1" class="edge"><title>n3&#45;&gt;n2</title>
<path fill="none" stroke="black" d="M63.8018,-74.3257C79.8298,-63.5377 101.715,-48.8069 118.874,-37.2578"/>
<polygon fill="black" stroke="black" points="121.018,-40.0335 127.36,-31.5462 117.11,-34.2264 121.018,-40.0335"/>
</g>
<!-- n6 -->
<g id="node4" class="node"><title>n6</title>
<ellipse fill="none" stroke="green" cx="146" cy="-162" rx="42.3456" ry="18"/>
<text text-anchor="middle" x="146" y="-158.3" font-family="Times,serif" font-size="14.00">test2.c</text>
</g>
<!-- n5 -->
<g id="node5" class="node"><title>n5</title>
<ellipse fill="none" stroke="red" cx="146" cy="-90" rx="42.3456" ry="18"/>
<text text-anchor="middle" x="146" y="-86.3" font-family="Times,serif" font-size="14.00">test2.o</text>
</g>
<!-- n6&#45;&gt;n5 -->
<g id="edge5" class="edge"><title>n6&#45;&gt;n5</title>
<path fill="none" stroke="black" d="M146,-143.697C146,-135.983 146,-126.712 146,-118.112"/>
<polygon fill="black" stroke="black" points="149.5,-118.104 146,-108.104 142.5,-118.104 149.5,-118.104"/>
</g>
<!-- n5&#45;&gt;n2 -->
<g id="edge2" class="edge"><title>n5&#45;&gt;n2</title>
<path fill="none" stroke="black" d="M146,-71.6966C146,-63.9827 146,-54.7125 146,-46.1124"/>
<polygon fill="black" stroke="black" points="149.5,-46.1043 146,-36.1043 142.5,-46.1044 149.5,-46.1043"/>
</g>
<!-- n8 -->
<g id="node6" class="node"><title>n8</title>
<ellipse fill="none" stroke="green" cx="250" cy="-162" rx="42.3456" ry="18"/>
<text text-anchor="middle" x="250" y="-158.3" font-family="Times,serif" font-size="14.00">test3.c</text>
</g>
<!-- n7 -->
<g id="node7" class="node"><title>n7</title>
<ellipse fill="none" stroke="red" cx="250" cy="-90" rx="42.3456" ry="18"/>
<text text-anchor="middle" x="250" y="-86.3" font-family="Times,serif" font-size="14.00">test3.o</text>
</g>
<!-- n8&#45;&gt;n7 -->
<g id="edge6" class="edge"><title>n8&#45;&gt;n7</title>
<path fill="none" stroke="black" d="M250,-143.697C250,-135.983 250,-126.712 250,-118.112"/>
<polygon fill="black" stroke="black" points="253.5,-118.104 250,-108.104 246.5,-118.104 253.5,-118.104"/>
</g>
<!-- n7&#45;&gt;n2 -->
<g id="edge3" class="edge"><title>n7&#45;&gt;n2</title>
<path fill="none" stroke="black" d="M228.198,-74.3257C212.17,-63.5377 190.285,-48.8069 173.126,-37.2578"/>
<polygon fill="black" stroke="black" points="174.89,-34.2264 164.64,-31.5462 170.982,-40.0335 174.89,-34.2264"/>
</g>
</g>
</svg>
